<svg width="182" height="181" viewBox="0 0 182 181" fill="none" xmlns="http://www.w3.org/2000/svg">
<path fill-rule="evenodd" clip-rule="evenodd" d="M171.594 97.6918C171.55 91.5482 181.884 92.4742 181.886 97.8628L181.9 140.424C181.906 159.311 159.242 179.908 142.34 180.067C135.183 180.134 128.016 180.583 120.864 180.268C114.666 179.995 115.054 170.128 120.37 169.866L141.679 168.817C155.533 168.134 172.002 153.821 171.889 138.152L171.594 97.6918ZM171.694 83.264C171.649 89.4077 181.983 88.4817 181.985 83.093L182 40.5315C182.005 21.6444 159.342 1.04696 142.439 0.888827C135.281 0.822155 128.115 0.372545 120.963 0.687955C114.766 0.960628 115.154 10.8281 120.469 11.0896L141.778 12.1393C155.632 12.8215 172.102 27.1346 171.988 42.8043L171.694 83.264ZM27.0577 85.56L26.873 61.3699C26.837 56.5969 29.3518 47.0935 38.6823 41.0246L82.1452 12.7548C87.2012 9.46647 95.2564 9.66138 100.237 13.0634L147.303 45.2071C152.279 48.6056 146.573 57.4114 141.335 53.9445L95.3775 23.5317C92.3491 21.5281 88.3633 22.0461 85.0704 24.1959L43.0124 51.6528C39.6391 53.8548 37.6143 58.4098 37.5536 62.4375L37.1979 85.9147C37.109 91.753 27.1047 91.7441 27.0577 85.56ZM55.8562 61.528L87.3261 40.9656C89.5301 39.5253 93.0243 39.8391 95.2172 41.2947L102.075 45.8489L124.049 60.6237C126.747 62.4375 127.903 68.5645 125.162 70.3142L94.0593 90.1672C92.3839 91.2365 89.7528 91.0683 88.0931 89.9722L55.1397 68.22C53.268 66.9841 53.9786 62.7554 55.8562 61.528ZM72.123 63.3803L88.7686 52.5042C89.9336 51.7426 91.7827 51.9085 92.9423 52.6786L96.5684 55.0873L108.191 62.9016C109.619 63.8616 110.23 67.102 108.781 68.0269L92.3287 78.5278C91.4424 79.0936 90.0512 79.0039 89.1729 78.4243L71.7433 66.9191C70.7532 66.2652 71.1295 64.0291 72.123 63.3803ZM93.5418 116.289C90.2569 118.2 89.6958 117.983 86.471 115.906L60.8814 99.4254C56.365 96.5165 50.0256 104.615 54.2359 107.53L86.825 130.097C89.4054 131.885 91.1761 131.892 94.004 130.02L126.851 108.268C130.353 105.948 125.293 97.8103 120.734 100.465L93.5427 116.288L93.5418 116.289ZM79.7125 167.471C82.6446 169.461 54.542 169.498 46.0503 169.169C24.6062 168.339 10.4874 155.87 10.4746 140.513L10.3917 40.7656C10.3737 18.9424 27.5913 9.1186 63.9922 10.9298C70.6044 11.2589 70.5976 0.876005 64.5172 0.490503C41.162 -0.990821 -0.0316192 -1.63361 1.82129e-05 37.7773L0.0923651 141.577C0.116307 168.654 21.6434 179.334 44.6327 180.565C60.0178 181.387 79.0302 181.574 87.6629 176.183C106.788 164.239 126.425 153.518 145.075 140.414C152.724 135.039 155.978 126.434 155.935 118.288L155.664 66.2746C155.638 61.4075 145.179 61.4862 145.171 66.9157L145.09 114.767C145.033 122.193 142.21 127.895 136.062 132.424L95.5334 157.579C90.5945 160.897 88.2641 158.926 86.3094 157.821C72.2786 149.885 57.94 138.868 45.3689 130.813C40.766 127.864 37.7537 125.385 37.6956 121.206L38.0649 104.614C38.2317 97.0935 27.0277 97.496 27.0807 104.137L27.2236 122.093C27.7913 132.599 32.9063 135.282 37.4433 138.776L79.7125 167.471Z" fill="#299B65"/>
</svg>
